<svg version="1.1" id="Layer_1" xmlns="http://www.w3.org/2000/svg" xmlns:xlink="http://www.w3.org/1999/xlink" x="0px" y="0px"
	 width="100%" viewBox="0 0 512 512" enable-background="new 0 0 512 512" xml:space="preserve">
<path fill="#FFFFFF" opacity="1.000000" stroke="none" 
	d="
M289.000000,513.000000 
	C267.979095,513.000000 246.958206,513.000000 225.770111,512.635010 
	C224.932831,511.852386 224.305695,511.175751 223.586121,511.056396 
	C214.959305,509.625427 206.172363,508.873779 197.708984,506.796692 
	C171.067413,500.258392 145.801941,490.035919 122.425156,475.679626 
	C98.239052,460.826447 77.128967,442.140503 59.021969,420.327972 
	C44.366955,402.673859 32.305283,383.256592 22.988760,362.187988 
	C12.906907,339.388580 5.785269,315.792816 2.923778,290.967987 
	C2.840748,290.247650 1.665823,289.653168 1.000004,289.000000 
	C1.000000,267.979095 1.000000,246.958206 1.364961,225.770111 
	C2.152917,224.599792 2.764266,223.633682 2.969765,222.587845 
	C5.022513,212.140656 6.580906,201.576126 9.098639,191.244522 
	C15.069571,166.742615 25.218805,143.849152 38.352161,122.445641 
	C52.204411,99.870529 69.552330,80.138824 89.630455,62.722931 
	C107.835922,46.931389 127.795410,34.042522 149.653458,24.059427 
	C173.354401,13.234634 197.944504,5.433247 224.033478,2.921985 
	C224.744064,2.853587 225.346909,1.665795 226.000000,0.999999 
	C246.354233,1.000000 266.708466,1.000000 287.228912,1.372506 
	C288.403046,2.162945 289.375671,2.786665 290.424408,2.966406 
	C299.195007,4.469605 308.115723,5.335164 316.733429,7.445515 
	C339.240509,12.957159 360.743164,21.158899 381.059784,32.474884 
	C397.958069,41.886875 414.078705,52.492157 428.015778,65.820854 
	C439.658356,76.955200 450.610840,88.961472 460.740845,101.493477 
	C477.852356,122.662460 490.207581,146.606140 499.097717,172.366943 
	C504.903809,189.191101 509.398224,206.267960 511.078979,224.033188 
	C511.146118,224.743027 512.334167,225.346802 513.000000,226.000000 
	C513.000000,246.354233 513.000000,266.708466 512.630859,287.229340 
	C511.842102,288.235260 511.183197,289.035706 511.039703,289.919800 
	C509.612305,298.713440 508.968445,307.699493 506.771515,316.290649 
	C500.431152,341.085022 491.141998,364.662170 478.172089,386.929199 
	C462.892090,413.162384 443.293365,435.552765 420.296387,454.947205 
	C403.394287,469.201599 384.657684,480.894897 364.377441,489.999847 
	C340.898376,500.540894 316.627258,508.169403 290.967896,511.076385 
	C290.248535,511.157867 289.653198,512.334229 289.000000,513.000000 
M269.935822,75.425949 
	C225.453323,139.028336 180.969818,202.630020 136.495834,266.238373 
	C135.639069,267.463745 134.744781,268.698853 134.125275,270.047607 
	C132.068649,274.525146 134.090652,278.950867 138.845932,280.158813 
	C140.751297,280.642853 142.798416,280.718933 144.781570,280.723267 
	C163.113419,280.763428 181.445358,280.740997 199.777283,280.750092 
	C209.494781,280.754913 210.909241,282.201508 210.909805,292.099243 
	C210.912811,345.761780 210.907211,399.424286 210.917618,453.086823 
	C210.919098,460.682678 213.027710,464.126160 218.695251,465.998901 
	C223.865448,467.707245 227.045914,466.315918 231.627579,460.221588 
	C252.047668,433.059540 272.453674,405.886932 292.863678,378.717255 
	C321.077484,341.159241 349.273926,303.588196 377.528412,266.060822 
	C380.380096,262.273254 382.477844,258.503448 380.186646,253.702454 
	C377.851440,248.809265 373.333649,249.771912 369.270966,249.757629 
	C353.938995,249.703766 338.598907,249.435303 323.277100,249.833374 
	C311.616150,250.136353 303.487274,242.691544 303.584167,230.179688 
	C304.020477,173.854095 303.774567,117.523193 303.773804,61.194210 
	C303.773773,59.694382 303.787231,58.194065 303.755280,56.694813 
	C303.665894,52.500626 301.511414,49.912743 297.578613,48.600353 
	C292.853119,47.023445 289.069366,48.277016 285.546844,53.155712 
	C280.380249,60.311436 275.397369,67.599792 269.935822,75.425949 
z"/>
<path fill="#000000" opacity="1.000000" stroke="none" 
	d="
M513.000000,225.531342 
	C512.334167,225.346802 511.146118,224.743027 511.078979,224.033188 
	C509.398224,206.267960 504.903809,189.191101 499.097717,172.366943 
	C490.207581,146.606140 477.852356,122.662460 460.740845,101.493477 
	C450.610840,88.961472 439.658356,76.955200 428.015778,65.820854 
	C414.078705,52.492157 397.958069,41.886875 381.059784,32.474884 
	C360.743164,21.158899 339.240509,12.957159 316.733429,7.445515 
	C308.115723,5.335164 299.195007,4.469605 290.424408,2.966406 
	C289.375671,2.786665 288.403046,2.162945 287.697571,1.372506 
	C362.927032,1.000000 437.854095,1.000000 513.000000,1.000000 
	C513.000000,75.687416 513.000000,150.375046 513.000000,225.531342 
z"/>
<path fill="#000000" opacity="1.000000" stroke="none" 
	d="
M289.468658,513.000000 
	C289.653198,512.334229 290.248535,511.157867 290.967896,511.076385 
	C316.627258,508.169403 340.898376,500.540894 364.377441,489.999847 
	C384.657684,480.894897 403.394287,469.201599 420.296387,454.947205 
	C443.293365,435.552765 462.892090,413.162384 478.172089,386.929199 
	C491.141998,364.662170 500.431152,341.085022 506.771515,316.290649 
	C508.968445,307.699493 509.612305,298.713440 511.039703,289.919800 
	C511.183197,289.035706 511.842102,288.235260 512.630859,287.697998 
	C513.000000,362.926849 513.000000,437.853729 513.000000,513.000000 
	C438.645905,513.000000 364.291626,513.000000 289.468658,513.000000 
z"/>
<path fill="#000000" opacity="1.000000" stroke="none" 
	d="
M225.531342,0.999999 
	C225.346909,1.665795 224.744064,2.853587 224.033478,2.921985 
	C197.944504,5.433247 173.354401,13.234634 149.653458,24.059427 
	C127.795410,34.042522 107.835922,46.931389 89.630455,62.722931 
	C69.552330,80.138824 52.204411,99.870529 38.352161,122.445641 
	C25.218805,143.849152 15.069571,166.742615 9.098639,191.244522 
	C6.580906,201.576126 5.022513,212.140656 2.969765,222.587845 
	C2.764266,223.633682 2.152917,224.599792 1.364961,225.301453 
	C1.000000,150.406128 1.000000,75.812256 1.000000,1.000000 
	C75.687416,1.000000 150.375046,1.000000 225.531342,0.999999 
z"/>
<path fill="#000000" opacity="1.000000" stroke="none" 
	d="
M1.000004,289.468658 
	C1.665823,289.653168 2.840748,290.247650 2.923778,290.967987 
	C5.785269,315.792816 12.906907,339.388580 22.988760,362.187988 
	C32.305283,383.256592 44.366955,402.673859 59.021969,420.327972 
	C77.128967,442.140503 98.239052,460.826447 122.425156,475.679626 
	C145.801941,490.035919 171.067413,500.258392 197.708984,506.796692 
	C206.172363,508.873779 214.959305,509.625427 223.586121,511.056396 
	C224.305695,511.175751 224.932831,511.852386 225.301453,512.635010 
	C150.406296,513.000000 75.812599,513.000000 1.000000,513.000000 
	C1.000000,438.645905 1.000000,364.291626 1.000004,289.468658 
z"/>
<path fill="#FF822E" opacity="1.000000" stroke="none" 
	d="
M270.136047,75.128792 
	C275.397369,67.599792 280.380249,60.311436 285.546844,53.155712 
	C289.069366,48.277016 292.853119,47.023445 297.578613,48.600353 
	C301.511414,49.912743 303.665894,52.500626 303.755280,56.694813 
	C303.787231,58.194065 303.773773,59.694382 303.773804,61.194210 
	C303.774567,117.523193 304.020477,173.854095 303.584167,230.179688 
	C303.487274,242.691544 311.616150,250.136353 323.277100,249.833374 
	C338.598907,249.435303 353.938995,249.703766 369.270966,249.757629 
	C373.333649,249.771912 377.851440,248.809265 380.186646,253.702454 
	C382.477844,258.503448 380.380096,262.273254 377.528412,266.060822 
	C349.273926,303.588196 321.077484,341.159241 292.863678,378.717255 
	C272.453674,405.886932 252.047668,433.059540 231.627579,460.221588 
	C227.045914,466.315918 223.865448,467.707245 218.695251,465.998901 
	C213.027710,464.126160 210.919098,460.682678 210.917618,453.086823 
	C210.907211,399.424286 210.912811,345.761780 210.909805,292.099243 
	C210.909241,282.201508 209.494781,280.754913 199.777283,280.750092 
	C181.445358,280.740997 163.113419,280.763428 144.781570,280.723267 
	C142.798416,280.718933 140.751297,280.642853 138.845932,280.158813 
	C134.090652,278.950867 132.068649,274.525146 134.125275,270.047607 
	C134.744781,268.698853 135.639069,267.463745 136.495834,266.238373 
	C180.969818,202.630020 225.453323,139.028336 270.136047,75.128792 
z"/>
</svg>