<?xml version="1.0" standalone="no"?>
<!DOCTYPE svg PUBLIC "-//W3C//DTD SVG 20010904//EN"
 "http://www.w3.org/TR/2001/REC-SVG-20010904/DTD/svg10.dtd">
<svg version="1.0" xmlns="http://www.w3.org/2000/svg"
 width="512.000000pt" height="512.000000pt" viewBox="0 0 512.000000 512.000000"
 preserveAspectRatio="xMidYMid meet">
<metadata>
Created by potrace 1.14, written by Peter Selinger 2001-2017
</metadata>
<g transform="translate(0.000000,512.000000) scale(0.100000,-0.100000)"
fill="#000000" stroke="none">
<path d="M2872 4624 c-31 -29 -1513 -2143 -1540 -2197 -19 -39 -1 -82 40 -96
20 -7 152 -11 358 -11 266 0 330 -3 346 -14 18 -14 19 -38 24 -893 3 -483 9
-886 13 -895 20 -41 86 -63 131 -44 24 10 204 242 782 1012 413 549 756 1009
762 1021 16 30 15 75 -2 99 -14 18 -32 19 -328 24 -304 5 -314 6 -349 28 -21
12 -45 35 -55 50 -18 26 -19 73 -24 959 -5 931 -5 932 -26 953 -12 12 -39 24
-61 27 -34 4 -45 1 -71 -23z"/>
</g>
</svg>
